<svg xmlns="http://www.w3.org/2000/svg" viewBox="0 0 886.0 1014.0">
  <g transform="translate(33.0,780.0) scale(1,-1)">
    <path d="M558 740H565Q578 740 581 719V692H685Q733 692 750 655Q756 639 756 622V612Q756 582 742 535Q760 502 760 483Q789 359 813 153Q813 139 795 135H793Q772 135 772 174Q744 375 720 479H719Q694 410 585 410L581 409V356Q581 354 602 351Q655 333 685 285Q707 248 720 194Q747 78 747 13Q743 -5 730 -5H724Q710 -5 707 16Q707 87 672 219Q648 285 608 306Q592 314 581 314V196H648Q664 196 667 176Q663 156 648 156H581V-47Q578 -69 562 -69Q542 -66 542 -50V156H481Q464 156 461 177Q461 190 477 196H542V313Q501 300 478 261Q452 208 452 193Q424 77 424 10Q418 -5 406 -5H401Q389 -5 384 14Q384 89 420 227Q434 269 456 299Q491 340 523 348Q523 350 542 353V409H392Q374 413 374 426V432Q374 446 395 449H542V535H401Q387 535 384 555Q388 574 401 574H500Q513 574 542 575V652Q532 653 528 653H397Q383 653 379 672V673Q383 692 397 692H542V721Q546 740 558 740ZM118 707Q176 707 188 689Q208 669 208 645Q195 554 184 357Q178 245 178 194Q178 38 201 -176Q201 -189 181 -194Q159 -194 159 -155Q139 41 139 193Q139 350 164 611Q165 611 168 647Q163 665 150 665Q138 667 107 667Q96 666 95 666Q95 520 75 189Q56 -28 41 -28Q35 -32 30 -32H28Q10 -28 10 -14V-12Q33 124 33 168Q45 284 55 601Q55 621 56 663H55L25 661Q7 665 7 681Q7 699 32 701Q75 706 118 707ZM234 664H236Q304 664 354 619Q379 592 379 554Q379 489 299 464Q273 457 249 457H242Q224 460 224 474V480Q224 494 248 497Q306 497 334 532Q340 544 340 554Q340 598 284 615Q252 626 230 626Q217 633 217 641V647Q217 660 234 664ZM581 652V575H658Q697 575 709 567Q718 600 718 616Q718 652 688 652ZM581 533V450L582 449Q660 449 680 487Q686 497 697 528Q688 535 669 535H583Q581 535 581 533ZM297 422Q361 422 361 323L363 236Q363 150 353 40Q365 8 402 -32Q451 -72 502 -72H789Q812 -75 812 -92Q808 -112 793 -112H504Q413 -112 345 -27H344V-28Q334 -113 319 -184Q311 -194 302 -194Q282 -190 282 -173Q323 51 323 236Q323 379 309 379Q309 382 297 382H293Q270 382 265 349Q260 310 250 153Q241 48 231 -21Q223 -32 214 -32H212Q193 -28 193 -13Q210 123 220 289Q220 394 262 414Q276 422 297 422Z" fill="currentColor" stroke="currentColor"
          stroke-width="0" stroke-linejoin="round" stroke-linecap="round"/>
  </g>
</svg>
